<svg fill="none" xmlns="http://www.w3.org/2000/svg">
    <path fill-rule="evenodd" clip-rule="evenodd"
        d="M6 0a6 6 0 0 0-6 6v26a6 6 0 0 0 6 6h26a6 6 0 0 0 6-6V6a6 6 0 0 0-6-6H6Zm23.5 16.6c1.3 0 2.3-1.1 2.3-2.5 0-1.3-1-2.4-2.3-2.4a2.4 2.4 0 0 0-2.3 2.4v.6l-4 4.4a2 2 0 0 0-.7-.1 2 2 0 0 0-.6 0l-3-3 .1-.7c0-1.3-1-2.4-2.3-2.4a2.4 2.4 0 0 0-2.4 2.4l.1.7-5.3 5.5h-.6a2.4 2.4 0 0 0-2.3 2.4c0 1.3 1 2.4 2.3 2.4 1.3 0 2.3-1 2.3-2.4v-.6l5.3-5.6h1.2l3 3.1-.1.6c0 1.4 1 2.5 2.3 2.5 1.3 0 2.3-1.1 2.3-2.5v-.6l4.1-4.3h.6Z" />
</svg>